# xmcd
#
# Track frame offsets:
#	150
#	2828
#	4137
#	17467
#	20206
#	31619
#	38348
#	57358
#	61189
#	75387
#	80125
#	91030
#	101082
#	113051
#	117411
#	132043
#	133427
#	146239
#	152281
#	155898
#	156330
#	176642
#	179676
#	191121
#	191863
#	208409
#	208635
#	228410
#
# Disc length: 3096 seconds
#
# Revision: 2
# Processed by: cddbd v1.5.2PL0 Copyright (c) Steve Scherf et al.
# Submitted via: EZCDAudioConverter 2.1.7.1
#
DISCID=850c161c
DTITLE=Roy Budd - Get Carter 1/2
DYEAR=1971
DGENRE=
TTITLE0=Intro
TTITLE1=Dialogue
TTITLE2=Carter Takes A Train (Main Theme)
TTITLE3=Dialogue
TTITLE4=Looking For Someone
TTITLE5=Dialogue - The Race Track
TTITLE6=Something On My Mind
TTITLE7=Dialogue
TTITLE8=Getting Nowhere In A Hurry
TTITLE9=Dialogue
TTITLE10=The Girl In The Car
TTITLE11=Dialogue
TTITLE12=Love Is A Four Letter Word
TTITLE13=Dialogue
TTITLE14=Livin' Should Be This Way
TTITLE15=Dialogue
TTITLE16=Manhunt
TTITLE17=Dialogue
TTITLE18=Goodbye Eric!
TTITLE19=Dialogue
TTITLE20=Hallucinations
TTITLE21=Dialogue
TTITLE22=Plaything
TTITLE23=Dialogue
TTITLE24=Goodbye Carter!
TTITLE25=Dialogue
TTITLE26=Hallucinations - Snoitanicullah [Instrumental]
TTITLE27=Dialogue
EXTD=
EXTT0=
EXTT1=
EXTT2=
EXTT3=
EXTT4=
EXTT5=
EXTT6=
EXTT7=
EXTT8=
EXTT9=
EXTT10=
EXTT11=
EXTT12=
EXTT13=
EXTT14=
EXTT15=
EXTT16=
EXTT17=
EXTT18=
EXTT19=
EXTT20=
EXTT21=
EXTT22=
EXTT23=
EXTT24=
EXTT25=
EXTT26=
EXTT27=
PLAYORDER=
